# xmcd
#
# Track frame offsets: 
#        150
#        19511
#        39264
#        65596
#        88029
#        105652
#        144276
#        162504
#        199343
#        213462
#        244421
#        263904
#        285726
#        312631
#        329122
#
# Disc length: 4681 seconds
#
# Revision: 0
# Processed by: cddbd v1.5.2PL0 Copyright (c) Steve Scherf et al.
# Submitted via: ExactAudioCopyFreeDBPlugin 1.0
#
DISCID=e712470f
DTITLE=Popa Chubby - Prime Cuts - The very best of the beast from the 
DTITLE=east
DYEAR=2018
DGENRE=Blues
TTITLE0=Life is a Beatdown
TTITLE1=Angel on my Shoulder
TTITLE2=Hey Joe
TTITLE3=Stoop down Baby
TTITLE4=Sweet Goddes of Love and Beer
TTITLE5=San Catri
TTITLE6=Caffeine and Nicotine
TTITLE7=Grown Man Crying Blues
TTITLE8=Theme from the Godfather
TTITLE9=Hallelujah
TTITLE10=Somebody let the Devil out
TTITLE11=I cant´t see the Light of the Day
TTITLE12=Dirty lie
TTITLE13=Daddy played the Guitar (And Mama was a Disco Queen)
TTITLE14=There on Christmas
EXTD=
EXTT0=
EXTT1=
EXTT2=
EXTT3=
EXTT4=
EXTT5=
EXTT6=
EXTT7=
EXTT8=
EXTT9=
EXTT10=
EXTT11=
EXTT12=
EXTT13=
EXTT14=
PLAYORDER=
